<?xml version="1.0" standalone="no"?> <!DOCTYPE svg PUBLIC "-//W3C//DTD SVG 1.0//EN" "http://www.w3.org/TR/2001/REC-SVG-20010904/DTD/svg10.dtd" > <svg xmlns="http://www.w3.org/2000/svg" width="100%" height="100%">
<defs >
<font id="candara" horiz-adv-x="1068" ><font-face
    font-family="Candara"
    units-per-em="2048"
    panose-1="2 14 5 2 3 3 3 2 2 4"
    ascent="1950"
    descent="-550"
    alphabetic="0" />
<missing-glyph horiz-adv-x="932" d="M932 1308V0H0V1308H932ZM841 91V1217H91V91H841ZM409 426L407 457Q407 581 445 632T514 711Q571 769 587 799T604 862Q604 928 563 973T466 1019Q408 1019 368 978T316 847L226 861Q238 991 306 1051T474 1111Q568 1111 633
1045T698 871Q698 814 676 768T584 656Q516 595 505 557T493 426H409ZM389 272Q389 300 408 319T454 338Q482 338 501 319T520 272Q520 245 501 227T454 208Q427 208 408 226T389 272Z" />
<glyph unicode=" " glyph-name="null" horiz-adv-x="444" />
<glyph unicode="!" glyph-name="null" horiz-adv-x="516" d="M378 1167Q378 952 295 537H221Q169 959 169 1155Q169 1326 287 1326Q378 1326 378 1167ZM393 147Q393 88 354 43T244 -2Q185 -2 153 37T120 130Q120 188 160 231T271 275Q330 275 361 238T393 147Z" />
<glyph unicode="&quot;" glyph-name="null" horiz-adv-x="926" d="M776 1262Q776 1047 650 702H613Q555 1074 555 1262Q555 1421 668 1421Q738 1421 757 1381T776 1262ZM371 1262Q371 1047 245 702H208Q150 1074 150 1262Q150 1421 263 1421Q333 1421 352 1381T371 1262Z" />
<glyph unicode="#" glyph-name="null" horiz-adv-x="1033" d="M998 916V788H806Q785 733 761 670Q736 602 713 542H894V414H664Q533 62 518 0H388Q404 39 549 414H313Q182 62 167 0H37Q53 40 198 414H35V542H248Q263 581 281 626Q314 712 343 788H139V916H391Q508
1233 515 1308H643Q635 1267 503 916H742Q859 1235 866 1308H994Q986 1269 854 916H998ZM694 788H455Q434 731 410 668Q384 601 362 542H599Q615 583 632 628Q665 713 694 788Z" />
<glyph unicode="$" glyph-name="null" horiz-adv-x="909" d="M796 311Q796 62 521 26Q521 -139 529 -269H411Q419 -134 418 20Q257 20 114 53L145 200Q275 150 422 150Q645 150 645 264Q645 323 593 364Q550 398 436 443Q298 498 237 546Q137 626 137 743Q137
845 207 923T420 1016Q420 1212 411 1322H529Q520 1209 521 1020Q670 1017 761 991L730 846Q621 890 484 890Q292 890 292 778Q292 722 332 690T498 609Q631 557 695 506Q796 425 796 311Z" />
<glyph unicode="%" glyph-name="null" horiz-adv-x="1033" d="M566 1068Q566 970 499 898T310 826Q189 826 122 897T54 1066Q54 1164 121 1236T310 1308Q431 1308 498 1237T566 1068ZM979 231Q979 133 912 62T723 -10Q602 -10 535 60T467 229Q467 327 534 399T723
471Q844 471 911 400T979 231ZM960 1292Q960 1203 570 659T180 0L62 10Q62 107 452 653T842 1302L960 1292ZM864 227Q864 291 827 338T723 386Q658 386 621 339T583 227Q583 164 619 118T723 72Q790 72 827 118T864 227ZM450 1064Q450 1128 413 1175T310 1223Q244
1223 207 1176T169 1064Q169 1001 206 955T310 909Q377 909 413 955T450 1064Z" />
<glyph unicode="&amp;" glyph-name="null" horiz-adv-x="1396" d="M1370 0H1153Q1153 25 1088 123Q1025 218 983 262H975Q778 -29 463 -29Q295 -29 189 63T83 316Q83 485 159 595T382 764V771Q202 910 202 1047Q202 1178 301 1251T535 1324Q669 1324 766 1252T864
1050Q864 967 811 894Q756 818 665 781V771Q777 712 1000 494H1006Q1050 571 1050 762H1238Q1238 722 1188 602Q1133 471 1083 417V409Q1158 340 1262 194Q1370 43 1370 0ZM913 343V353Q840 430 769 495Q600 649 473 711Q262 616 262 386Q262 261 338 187T541 112Q710
112 913 343ZM702 1010Q702 1104 653 1152T533 1200Q468 1200 419 1161T370 1056Q370 921 574 826Q702 882 702 1010Z" />
<glyph unicode="&apos;" glyph-name="null" horiz-adv-x="521" d="M371 1262Q371 1047 245 702H208Q150 1074 150 1262Q150 1421 263 1421Q333 1421 352 1381T371 1262Z" />
<glyph unicode="(" glyph-name="null" horiz-adv-x="723" d="M651 -401L578 -486Q431 -418 329 -301Q79 -18 79 471Q79 997 334 1312Q441 1443 589 1521L640 1436Q524 1345 442 1219Q244 915 244 471Q244 91 448 -193Q491 -253 541 -304T651 -401Z" />
<glyph unicode=")" glyph-name="null" horiz-adv-x="723" d="M651 564Q651 38 396 -277Q289 -408 140 -486L89 -401Q205 -311 288 -184Q486 121 486 564Q486 945 283 1228Q198 1347 79 1436L151 1521Q297 1454 401 1336Q651 1053 651 564Z" />
<glyph unicode="*" glyph-name="null" horiz-adv-x="1033" d="M940 1058Q940 971 771 971Q680 971 587 979L581 959Q800 778 800 721Q800 680 756 640T669 599Q587 599 517 917H494Q384 628 312 628Q270 628 224 663T178 740Q178 812 434 965L428 988Q316 997
134 1029Q95 1042 95 1103Q95 1151 118 1192T182 1233Q240 1233 457 1060L475 1072Q424 1296 424 1364Q424 1395 458 1414T537 1434Q636 1434 636 1364Q636 1285 552 1068L568 1052Q787 1192 847 1192Q885 1192 912 1146T940 1058Z" />
<glyph unicode="+" glyph-name="null" horiz-adv-x="1033" d="M926 438H581V72H452V438H107V566H452V932H581V566H926V438Z" />
<glyph unicode="," glyph-name="null" horiz-adv-x="516" d="M390 114Q390 -19 321 -135T110 -376L50 -310Q202 -140 202 4Q116 38 116 130Q116 188 152 231T259 275Q317 275 353 228T390 114Z" />
<glyph unicode="-" glyph-name="null" horiz-adv-x="516" d="M479 581L467 452L39 438L48 566L479 581Z" />
<glyph unicode="." glyph-name="null" horiz-adv-x="516" d="M393 147Q393 88 354 43T244 -2Q185 -2 153 37T120 130Q120 188 160 231T271 275Q330 275 361 238T393 147Z" />
<glyph unicode="/" glyph-name="null" horiz-adv-x="547" d="M532 1455Q532 1386 349 627T166 -302H15Q15 -237 199 514T383 1455H532Z" />
<glyph unicode="0" glyph-name="null" horiz-adv-x="1125" d="M1005 539Q1005 299 886 137T550 -25Q342 -25 231 123T120 500Q120 740 239 902T575 1064Q783 1064 894 916T1005 539ZM836 499Q836 696 761 815T554 932Q427 932 358 819T289 540Q289 343 364 224T571
107Q687 107 761 211T836 499Z" />
<glyph unicode="1" glyph-name="null" horiz-adv-x="716" d="M516 0H345Q356 211 356 438Q356 701 345 826L117 712L70 799L430 1064H516Q506 741 506 438Q506 224 516 0Z" />
<glyph unicode="2" glyph-name="null" horiz-adv-x="946" d="M846 141L826 0H100L120 135Q379 313 484 432T589 708Q589 919 307 919Q186 919 115 903L135 1044Q209 1064 329 1064Q551 1064 658 974T765 755Q765 563 626 415T284 137V129Q568 129 846 141Z" />
<glyph unicode="3" glyph-name="null" horiz-adv-x="995" d="M875 151Q875 -52 673 -214T89 -396L60 -273Q363 -253 533 -152T703 116Q703 271 576 334T206 398L226 517Q419 517 543 576T667 738Q667 835 589 876T347 917Q224 917 132 896L144 1037Q236 1064 433
1064Q615 1064 713 987T812 802Q812 582 581 505V495Q708 471 791 379T875 151Z" />
<glyph unicode="4" glyph-name="null" horiz-adv-x="1092" d="M1002 311L981 154H808Q808 -32 820 -330H649Q657 -72 657 154H91L70 280Q70 306 341 673T611 1055H820Q808 829 808 300Q899 300 1002 311ZM667 913H659Q659 886 444 602T229 302V294Q405 294 656
301Q658 611 667 913Z" />
<glyph unicode="5" glyph-name="null" horiz-adv-x="1006" d="M886 174Q886 -32 685 -192T148 -365L120 -247Q396 -230 552 -128T709 129Q709 297 582 364T127 432Q183 888 183 1055H794L788 896Q584 924 306 924Q279 733 279 566Q587 566 736 473T886 174Z" />
<glyph unicode="6" glyph-name="null" horiz-adv-x="1130" d="M1010 404Q1010 223 893 90T562 -43Q379 -43 250 97T120 509Q120 1300 820 1343L833 1227Q567 1200 443 1072T295 681H306Q402 814 628 814Q807 814 908 693T1010 404ZM836 375Q836 503 758 595T527
687Q384 687 294 570Q294 313 371 200T566 86Q692 86 764 171T836 375Z" />
<glyph unicode="7" glyph-name="null" horiz-adv-x="968" d="M878 1055Q878 870 733 545Q673 410 465 12Q321 -264 321 -330L145 -309Q145 -245 296 18Q557 477 574 511Q725 798 725 916Q509 916 70 890L76 1055H878Z" />
<glyph unicode="8" glyph-name="null" horiz-adv-x="1127" d="M1007 370Q1007 185 874 82T558 -21Q380 -21 250 78T120 355Q120 472 194 570T405 727V738Q199 865 199 1052Q199 1202 309 1284T571 1366Q719 1366 827 1288T936 1074Q936 981 878 896T717 769V758Q1007
595 1007 370ZM841 343Q841 531 531 682Q423 645 354 562T284 380Q284 251 367 182T567 112Q678 112 759 174T841 343ZM777 1052Q777 1149 715 1200T565 1252Q482 1252 420 1207T358 1083Q358 921 595 808Q777 889 777 1052Z" />
<glyph unicode="9" glyph-name="null" horiz-adv-x="1123" d="M1003 492Q1003 -362 278 -405L249 -286Q794 -249 827 345H817Q717 202 498 202Q321 202 221 324T120 616Q120 797 235 930T560 1064Q744 1064 873 920T1003 492ZM829 469Q829 698 744 813T543 929Q426
929 360 846T293 647Q293 520 373 425T596 330Q748 330 829 469Z" />
<glyph unicode=":" glyph-name="null" horiz-adv-x="516" d="M393 829Q393 770 354 725T244 680Q185 680 153 719T120 812Q120 870 160 913T271 957Q330 957 361 920T393 829ZM393 147Q393 88 354 43T244 -2Q185 -2 153 37T120 130Q120 188 160 231T271 275Q330
275 361 238T393 147Z" />
<glyph unicode=";" glyph-name="null" horiz-adv-x="516" d="M390 114Q390 -19 321 -135T110 -376L50 -310Q202 -140 202 4Q116 38 116 130Q116 188 152 231T259 275Q317 275 353 228T390 114ZM393 829Q393 770 354 725T244 680Q185 680 153 719T120 812Q120 870
160 913T271 957Q330 957 361 920T393 829Z" />
<glyph unicode="&lt;" glyph-name="null" horiz-adv-x="1033" d="M926 149L843 25L107 469V556L843 1000L926 878L277 523V500L926 149Z" />
<glyph unicode="=" glyph-name="null" horiz-adv-x="1033" d="M926 645H107V773H926V645ZM926 231H107V359H926V231Z" />
<glyph unicode="&gt;" glyph-name="null" horiz-adv-x="1033" d="M926 469L190 25L107 149L758 502V525L107 878L190 1000L926 556V469Z" />
<glyph unicode="?" glyph-name="null" horiz-adv-x="723" d="M653 1023Q653 807 376 688L355 537H277L240 750Q483 799 483 992Q483 1209 60 1209L85 1335Q653 1335 653 1023ZM436 147Q436 88 397 43T287 -2Q228 -2 196 37T163 130Q163 188 203 231T314 275Q373
275 404 238T436 147Z" />
<glyph unicode="@" glyph-name="null" horiz-adv-x="2066" d="M1940 607Q1940 345 1812 158T1473 -29Q1360 -29 1287 38T1213 223H1204Q1090 -29 882 -29Q752 -29 682 84T612 364Q612 600 742 789T1099 979Q1241 979 1293 888H1304L1322 950L1450 971Q1366 490
1366 395Q1366 245 1401 176T1539 107Q1637 107 1705 246T1773 576Q1773 874 1594 1097T1037 1320Q693 1320 493 1067T293 477Q293 150 486 -83T1037 -316Q1193 -316 1318 -271L1339 -444Q1213 -475 1033 -475Q602 -475 366 -192T130 483Q130 882 370 1178T1033
1475Q1479 1475 1709 1215T1940 607ZM1262 777Q1214 835 1109 835Q954 835 864 691T773 374Q773 262 815 189T938 116Q1051 116 1151 296Q1262 496 1262 777Z" />
<glyph unicode="A" glyph-name="null" horiz-adv-x="1262" d="M1251 0H1040Q1040 67 914 421H337Q213 72 213 0H11Q11 37 269 639T527 1302H759Q759 1243 1005 649T1251 0ZM868 552Q633 1139 633 1176H622Q622 1145 379 552H868Z" />
<glyph unicode="B" glyph-name="null" horiz-adv-x="1200" d="M1101 397Q1101 203 936 97Q775 -6 494 -6Q416 -6 188 0Q202 310 202 684Q202 1036 188 1302H308Q343 1302 449 1305T603 1308Q1019 1308 1019 1021Q1019 797 822 723V713Q1101 663 1101 397ZM932
380Q932 626 496 626Q416 626 355 620Q355 353 366 143Q404 134 500 134Q741 134 842 197Q932 254 932 380ZM851 971Q851 1178 572 1178Q432 1178 345 1163Q353 1091 353 756Q402 754 461 754Q659 754 749 799Q851 849 851 971Z" />
<glyph unicode="C" glyph-name="null" horiz-adv-x="1125" d="M1070 159L1057 10Q934 -27 789 -27Q445 -27 272 161T99 622Q99 907 292 1113T811 1320Q901 1320 1001 1293L973 1134Q858 1170 768 1170Q526 1170 401 1020T276 653Q276 432 420 274T818 116Q915
116 1070 159Z" />
<glyph unicode="D" glyph-name="null" horiz-adv-x="1316" d="M1217 698Q1217 414 1036 200T535 -14Q431 -14 188 0Q203 310 203 684Q203 1036 188 1302H298Q338 1302 420 1305T528 1308Q881 1308 1049 1135T1217 698ZM1043 653Q1043 875 902 1024T464 1173Q422
1173 349 1163Q357 930 357 684Q357 414 368 136Q448 120 522 120Q786 120 914 276T1043 653Z" />
<glyph unicode="E" glyph-name="null" horiz-adv-x="1066" d="M1000 151L994 0H188Q202 310 202 684Q202 1036 188 1302H944L936 1153Q661 1165 353 1165Q359 1010 359 746Q625 746 833 758V609Q611 618 359 618Q359 361 368 136Q700 136 1000 151Z" />
<glyph unicode="F" glyph-name="null" horiz-adv-x="1002" d="M958 1302L950 1153Q684 1165 347 1165Q359 999 359 707Q594 707 816 715V570Q602 578 359 578Q359 187 370 0H188Q202 310 202 684Q202 1036 188 1302H958Z" />
<glyph unicode="G" glyph-name="null" horiz-adv-x="1271" d="M1138 27Q974 -27 807 -27Q456 -27 278 160T99 624Q99 903 293 1111T831 1320Q955 1320 1066 1291L1041 1125Q876 1165 775 1165Q533 1165 405 1019T276 655Q276 437 423 273T840 109Q889 109 987
124Q970 228 970 366Q970 482 956 593H1138Q1130 461 1130 314Q1130 251 1138 27Z" />
<glyph unicode="H" glyph-name="null" horiz-adv-x="1335" d="M1147 0H957Q967 346 967 620H368Q368 398 378 0H188Q202 365 202 684Q202 1018 188 1302H378Q366 1016 366 746H969Q969 963 957 1302H1147Q1132 1024 1132 684Q1132 311 1147 0Z" />
<glyph unicode="I" glyph-name="null" horiz-adv-x="566" d="M378 0H188Q203 324 203 684Q203 1038 188 1302H378Q364 1029 364 684Q364 322 378 0Z" />
<glyph unicode="J" glyph-name="null" horiz-adv-x="851" d="M685 1302Q678 1150 675 965T671 558Q671 397 644 292T560 115T412 8T196 -27Q99 -27 22 -6L37 140Q108 107 185 107Q271 107 335 131T438 208T493 336T510 535Q510 989 495 1302H685Z" />
<glyph unicode="K" glyph-name="null" horiz-adv-x="1212" d="M1190 0H971Q971 11 857 174Q725 363 616 486Q468 653 397 653H366Q366 419 376 0H188Q203 310 203 684Q203 1036 188 1302H376Q366 1036 366 762H389Q444 762 663 1017T883 1302H1091Q1091 1272 878
1055T560 762V752Q675 708 943 355Q1190 30 1190 0Z" />
<glyph unicode="L" glyph-name="null" horiz-adv-x="1003" d="M981 147L975 0H188Q200 247 200 684Q200 1060 188 1302H374Q362 1100 362 684Q362 342 351 136Q651 136 981 147Z" />
<glyph unicode="M" glyph-name="null" horiz-adv-x="1748" d="M1582 0H1394Q1394 223 1363 645T1330 1151H1320Q1220 826 1067 446T913 0H778Q778 70 635 453T454 967T402 1151H392Q389 1014 353 598T316 0H144Q144 10 212 550T280 1302H543Q543 1192 703 752T863
219H873Q873 312 1053 753T1233 1302H1490Q1490 1091 1536 554T1582 0Z" />
<glyph unicode="N" glyph-name="null" horiz-adv-x="1380" d="M1192 0H1052Q1052 17 724 479Q381 964 333 1091H323Q341 850 341 678Q341 342 356 0H188Q205 325 205 684Q205 1037 188 1302H380Q380 1274 682 846Q998 396 1042 260H1052Q1035 504 1035 674Q1035
1044 1021 1302H1192Q1175 1037 1175 684Q1175 325 1192 0Z" />
<glyph unicode="O" glyph-name="null" horiz-adv-x="1421" d="M1322 671Q1322 348 1133 155T696 -39Q458 -39 279 138T99 618Q99 945 288 1136T725 1328Q963 1328 1142 1151T1322 671ZM1144 648Q1144 906 1009 1047T696 1189Q532 1189 404 1040T276 642Q276 383
412 242T725 100Q889 100 1016 251T1144 648Z" />
<glyph unicode="P" glyph-name="null" horiz-adv-x="1132" d="M1066 979Q1066 751 893 638T428 525Q391 525 364 527Q364 309 380 0H188Q203 284 203 684Q203 1028 188 1302H331Q354 1302 462 1305T647 1308Q839 1308 952 1221T1066 979ZM899 921Q899 1178 548
1178Q462 1178 355 1163Q362 1000 362 655Q397 653 448 653Q899 653 899 921Z" />
<glyph unicode="Q" glyph-name="null" horiz-adv-x="1421" d="M1357 -434L1169 -442Q1106 -167 1023 -100Q947 -39 696 -39Q463 -39 292 125Q99 311 99 618Q99 950 302 1151Q482 1328 725 1328Q958 1328 1129 1164Q1322 979 1322 671Q1322 443 1222 272Q1132 119
979 35V25Q1148 9 1222 -79Q1300 -172 1357 -434ZM1144 648Q1144 908 997 1059Q870 1189 696 1189Q535 1189 412 1048Q276 891 276 642Q276 383 424 231Q552 100 725 100Q886 100 1008 242Q1144 399 1144 648Z" />
<glyph unicode="R" glyph-name="null" horiz-adv-x="1240" d="M1174 0H981Q885 287 841 380Q785 497 714 531Q658 558 513 558Q428 558 362 556Q362 233 374 0H188Q203 310 203 684Q203 1036 188 1302H329Q374 1302 443 1305T601 1308Q1039 1308 1039 1006Q1039
755 793 653V643Q903 610 971 490Q1028 390 1174 0ZM868 938Q868 1176 546 1176Q431 1176 353 1163Q360 989 360 690Q420 688 475 688Q868 688 868 938Z" />
<glyph unicode="S" glyph-name="null" horiz-adv-x="1047" d="M948 337Q948 -33 433 -33Q245 -33 99 10L134 167Q302 109 453 109Q793 109 793 301Q793 398 705 467Q646 513 473 590Q291 671 218 739Q117 833 117 975Q117 1123 220 1216Q335 1320 545 1320Q783
1320 871 1289L847 1130Q695 1178 524 1178Q267 1178 267 1006Q267 923 341 867Q389 832 553 761Q740 680 823 607Q948 497 948 337Z" />
<glyph unicode="T" glyph-name="null" horiz-adv-x="1043" d="M1021 1302L1016 1161Q818 1171 607 1171Q605 979 605 684Q605 358 615 0H432Q444 341 444 684Q444 975 438 1171Q290 1171 22 1159L27 1302H1021Z" />
<glyph unicode="U" glyph-name="null" horiz-adv-x="1398" d="M1232 1302Q1228 1113 1226 949T1224 643Q1224 -27 695 -27Q557 -27 459 12T297 133T204 339T174 632Q174 780 172 946T166 1302H356Q344 921 344 705Q344 531 361 422T421 239T531 136T699 105Q806
105 873 135T982 236T1042 417T1060 707Q1060 813 1057 960T1046 1302H1232Z" />
<glyph unicode="V" glyph-name="null" horiz-adv-x="1134" d="M1123 1302Q1123 1219 871 652T618 0H488Q488 77 250 647T11 1302H201Q201 1224 383 747T565 200H575Q575 278 759 744T943 1302H1123Z" />
<glyph unicode="W" glyph-name="null" horiz-adv-x="1815" d="M1804 1302Q1804 1229 1588 648T1372 0H1242Q1242 88 1085 510Q914 967 891 1099H878Q858 959 706 499Q564 68 564 0H434Q434 102 223 683T11 1302H201Q201 1261 352 784T504 200H515Q515 313 669
780T823 1302H998Q998 1237 1158 748T1318 200H1329Q1329 298 1474 754T1620 1302H1804Z" />
<glyph unicode="X" glyph-name="null" horiz-adv-x="1143" d="M1132 0H915Q915 39 765 288Q620 529 550 614H539Q479 533 353 296Q221 47 221 0H11Q11 30 222 345Q431 657 482 705V715Q428 776 260 1022Q87 1276 87 1302H302Q302 1272 422 1070Q540 872 591 812H601Q652
874 763 1073T874 1302H1085Q1085 1274 902 1032Q725 800 661 735V725Q737 640 931 345Q1132 40 1132 0Z" />
<glyph unicode="Y" glyph-name="null" horiz-adv-x="1127" d="M1105 1302Q1105 1265 982 1086Q808 833 755 742Q632 533 632 424Q632 218 646 0H454Q467 207 467 426Q467 546 352 759Q287 878 137 1103Q22 1277 22 1302H227Q227 1276 399 984T572 597H582Q582
692 746 977T911 1302H1105Z" />
<glyph unicode="Z" glyph-name="null" horiz-adv-x="1062" d="M963 167L957 0H99L108 120Q234 296 475 690Q734 1115 734 1163V1174Q515 1174 113 1149L118 1302H934L926 1178Q812 1017 575 613Q328 193 328 151V140Q535 140 963 167Z" />
<glyph unicode="[" glyph-name="null" horiz-adv-x="723" d="M599 -312L589 -486L118 -475Q130 208 130 471Q130 675 118 1508L599 1521L589 1349Q369 1355 289 1355Q281 664 281 471Q281 332 289 -331Q363 -329 599 -312Z" />
<glyph unicode="\" glyph-name="null" horiz-adv-x="547" d="M533 -302H372Q372 -133 194 626T16 1455H175Q175 1266 354 515T533 -302Z" />
<glyph unicode="]" glyph-name="null" horiz-adv-x="723" d="M600 -472L119 -485L129 -313Q349 -319 429 -319Q437 372 437 565Q437 704 429 1367Q355 1365 119 1348L129 1522L600 1511Q588 828 588 565Q588 361 600 -472Z" />
<glyph unicode="^" glyph-name="null" horiz-adv-x="1033" d="M1004 682L876 599L527 1244H504L157 599L29 682L473 1417H560L1004 682Z" />
<glyph unicode="_" glyph-name="null" horiz-adv-x="1033" d="M1033 -512H0V-384H1033V-512Z" />
<glyph unicode="`" glyph-name="null" horiz-adv-x="562" d="M486 1086H366Q366 1102 228 1250T90 1410H306Q306 1399 396 1251T486 1086Z" />
<glyph unicode="a" glyph-name="null" horiz-adv-x="1005" d="M883 0L726 -6Q714 43 714 87H704Q581 -25 369 -25Q254 -25 171 42T88 235Q88 389 218 482T701 581Q704 605 704 636Q704 759 639 800T440 841Q283 841 131 802L148 940Q298 983 493 983Q671 983 768
910T865 659Q865 612 861 489T856 324Q856 142 883 0ZM706 194Q701 346 701 467Q513 467 415 439Q251 389 251 248Q251 112 443 112Q608 112 706 194Z" />
<glyph unicode="b" glyph-name="null" horiz-adv-x="1138" d="M1039 514Q1039 295 914 134T572 -27Q388 -27 322 39H314L289 0H142Q155 345 155 746Q155 1108 122 1407L320 1417Q310 1245 310 872H318Q416 985 629 985Q814 985 926 847T1039 514ZM861 490Q861
641 782 745T564 849Q384 849 306 740Q306 384 322 163Q403 95 533 95Q697 95 779 210T861 490Z" />
<glyph unicode="c" glyph-name="null" horiz-adv-x="925" d="M859 153L849 19Q768 -27 632 -27Q373 -27 236 116T99 461Q99 675 243 829T624 983Q743 983 818 959L791 802Q686 841 578 841Q436 841 352 742T268 494Q268 332 368 224T651 116Q726 116 859 153Z" />
<glyph unicode="d" glyph-name="null" horiz-adv-x="1127" d="M994 1L845 -4Q837 39 837 87H826Q721 -27 514 -27Q324 -27 212 111T99 444Q99 665 224 825T576 985Q738 985 808 919H816Q816 1167 802 1406L992 1413Q973 1159 973 748Q973 330 994 1ZM833 198Q833
509 816 797Q735 864 614 864Q445 864 361 752T277 469Q277 317 356 213T577 109Q754 109 833 198Z" />
<glyph unicode="e" glyph-name="null" horiz-adv-x="1051" d="M952 587Q952 545 948 471L261 459Q271 313 374 215T647 116Q799 116 932 153L915 12Q817 -27 632 -27Q372 -27 236 115T99 461Q99 679 223 836T558 994Q751 994 851 880T952 587ZM785 585Q785 866
550 866Q310 866 267 574L785 585Z" />
<glyph unicode="f" glyph-name="null" horiz-adv-x="694" d="M694 1419L665 1287Q605 1302 545 1302Q453 1302 421 1230T388 930Q487 930 665 940L659 791Q457 797 388 797Q388 342 400 0H221Q235 333 235 797Q174 797 22 791L29 938Q167 930 235 930Q235 1195
309 1315T545 1436Q616 1436 694 1419Z" />
<glyph unicode="g" glyph-name="null" horiz-adv-x="1105" d="M1072 1076L1056 938Q870 938 851 878V868Q915 790 915 690Q915 534 813 433T496 331Q401 331 345 351Q296 316 296 264Q296 200 354 179Q428 151 663 151Q1043 151 1043 -101Q1043 -281 895 -399T512
-517Q271 -517 169 -430T66 -219Q66 -107 116 -39T242 45V54Q163 92 163 200Q163 298 263 372V380Q210 406 162 468T114 622Q114 781 219 881T523 981Q686 981 779 922H790Q822 1091 958 1091Q1032 1091 1072 1076ZM893 -169Q893 -75 825 -37T567 2Q439 2 333 14Q211
-45 211 -159Q211 -403 531 -403Q698 -403 795 -338T893 -169ZM754 649Q754 759 685 817T508 876Q407 876 339 820T271 659Q271 550 340 493T519 436Q619 436 686 491T754 649Z" />
<glyph unicode="h" glyph-name="null" horiz-adv-x="1109" d="M979 0H797Q819 263 819 566Q819 728 759 784T591 841Q441 841 310 738Q310 192 318 0H142Q151 264 151 746Q151 1168 122 1407L312 1417Q304 1112 304 851H310Q460 983 639 983Q799 983 889 909T979
647Q979 628 977 573T975 475Q975 331 979 0Z" />
<glyph unicode="i" glyph-name="null" horiz-adv-x="446" d="M313 0H132Q146 200 146 457Q146 746 111 942L311 969Q299 760 299 457Q299 217 313 0ZM355 1250Q355 1199 322 1162T229 1124Q178 1124 150 1156T121 1235Q121 1285 155 1322T249 1359Q298 1359 326
1327T355 1250Z" />
<glyph unicode="j" glyph-name="null" horiz-adv-x="446" d="M312 971Q295 661 295 349Q295 266 300 130T306 -56Q306 -379 60 -448L10 -372Q99 -297 120 -212Q151 -90 151 308Q151 735 111 946L312 971ZM355 1250Q355 1199 322 1162T229 1124Q178 1124 150 1156T121
1235Q121 1285 155 1322T249 1359Q298 1359 326 1327T355 1250Z" />
<glyph unicode="k" glyph-name="null" horiz-adv-x="1000" d="M989 0H754Q754 35 560 267Q361 506 310 506H303Q303 292 314 0H138Q151 366 151 746Q151 1133 122 1407L314 1417Q303 1201 303 578H310Q343 578 517 746T692 950H913Q913 918 756 784Q609 659 487
578V570Q611 476 806 248Q989 33 989 0Z" />
<glyph unicode="l" glyph-name="null" horiz-adv-x="469" d="M325 0H133Q151 330 151 746Q151 1150 122 1407L325 1417Q306 1145 306 746Q306 335 325 0Z" />
<glyph unicode="m" glyph-name="null" horiz-adv-x="1677" d="M1388 579Q1388 739 1333 790T1150 842Q1043 842 929 737Q925 615 925 498Q925 331 931 0H749Q771 285 771 579Q771 739 716 790T538 842Q413 842 304 737Q304 420 308 0H126Q145 340 145 492Q145
723 100 946L276 971L294 850H304Q434 983 593 983Q830 983 898 850H909Q1060 983 1207 983Q1375 983 1461 909T1547 648Q1547 629 1545 573T1543 498Q1543 331 1547 0H1365Q1388 262 1388 579Z" />
<glyph unicode="n" glyph-name="null" horiz-adv-x="1109" d="M979 0H797Q819 263 819 574Q819 728 757 784T578 841Q436 841 316 738Q316 397 320 0H138Q155 340 155 492Q155 726 111 946L287 971L306 849H314Q462 983 631 983Q797 983 888 910T979 648Q979 629
977 573T975 498Q975 331 979 0Z" />
<glyph unicode="o" glyph-name="null" horiz-adv-x="1144" d="M1045 504Q1045 248 898 105T552 -39Q366 -39 233 88T99 446Q99 704 246 849T593 994Q779 994 912 866T1045 504ZM872 469Q872 625 794 746T570 868Q426 868 349 753T271 486Q271 329 349 208T574
87Q718 87 795 202T872 469Z" />
<glyph unicode="p" glyph-name="null" horiz-adv-x="1138" d="M1039 514Q1039 298 916 136T572 -27Q388 -27 330 39H320Q320 -239 326 -457H138Q161 -191 161 200Q161 682 111 946L287 971L302 872H312Q409 985 626 985Q817 985 928 846T1039 514ZM861 490Q861
638 783 743T564 849Q384 849 306 740Q322 404 322 163Q403 95 533 95Q698 95 779 211T861 490Z" />
<glyph unicode="q" glyph-name="null" horiz-adv-x="1139" d="M1006 -455H828Q837 -181 837 87H826Q723 -27 512 -27Q323 -27 211 112T99 444Q99 660 221 822T566 985Q748 985 833 919H841L882 950L1006 961Q992 625 992 287Q992 -117 1006 -455ZM837 219Q837
549 828 795Q735 864 605 864Q440 864 359 748T277 469Q277 321 355 215T574 109Q754 109 837 219Z" />
<glyph unicode="r" glyph-name="null" horiz-adv-x="726" d="M736 950L691 791Q613 822 546 822Q358 822 302 643Q302 183 308 0H131Q147 317 147 492Q147 729 100 946L275 971Q294 861 294 824H302Q410 983 554 983Q630 983 736 950Z" />
<glyph unicode="s" glyph-name="null" horiz-adv-x="858" d="M767 271Q767 -21 394 -21Q229 -21 86 12L117 159Q247 109 399 109Q617 109 617 233Q617 293 569 328T408 408Q266 464 202 516Q108 593 108 702Q108 816 194 897T456 979Q628 979 732 950L701 806Q593
849 451 849Q259 849 259 738Q259 682 302 648T470 564Q605 511 670 460Q767 381 767 271Z" />
<glyph unicode="t" glyph-name="null" horiz-adv-x="735" d="M680 138L668 8Q589 -21 519 -21Q339 -21 273 70T207 398Q207 551 209 797Q153 797 44 791L50 936Q145 930 220 930Q220 990 230 1215L387 1231Q370 1021 370 930Q468 930 658 940L651 791Q471 797
362 797Q360 646 360 457Q360 251 403 185T565 118Q604 118 680 138Z" />
<glyph unicode="u" glyph-name="null" horiz-adv-x="1097" d="M975 1L820 -5Q806 51 806 87H796Q663 -25 473 -25Q300 -25 222 58T143 395Q143 431 145 502T147 599Q147 746 130 945L316 952Q304 759 304 622Q304 307 344 212T527 116Q687 116 791 196Q791 752
781 945L961 952Q953 764 953 432Q953 219 975 1Z" />
<glyph unicode="v" glyph-name="null" horiz-adv-x="984" d="M940 950Q940 901 738 478T535 0H401Q401 70 223 489T44 950H238Q238 902 368 569T498 188H507Q507 234 630 555T754 950H940Z" />
<glyph unicode="w" glyph-name="null" horiz-adv-x="1569" d="M1525 950Q1525 890 1354 480T1182 0H1046Q1046 38 945 291Q821 602 769 777H761Q713 608 597 290Q505 38 505 0H368Q368 58 206 480T44 950H222Q222 898 338 570T455 188H466Q466 270 586 583T707
950H877Q877 904 1002 567T1127 188H1137Q1137 249 1245 560T1354 950H1525Z" />
<glyph unicode="x" glyph-name="null" horiz-adv-x="1032" d="M977 0H760Q760 25 664 170T495 413H487Q436 343 346 187T256 0H55Q55 29 198 220T429 504V512Q363 585 231 758T99 950H313Q313 926 393 796T528 597H537Q586 656 664 790T743 950H933Q933 933 798
756T603 519V508Q688 409 832 216T977 0Z" />
<glyph unicode="y" glyph-name="null" horiz-adv-x="952" d="M908 950Q908 886 757 542Q584 149 542 -12Q473 -273 414 -344Q334 -442 129 -442L121 -302Q246 -302 329 -217T412 -4Q412 107 228 524T44 950H251Q251 923 377 586T503 171H513Q513 236 619 548T726
950H908Z" />
<glyph unicode="z" glyph-name="null" horiz-adv-x="933" d="M834 161L828 0H99L107 155Q160 206 378 471Q615 760 615 795L614 806Q293 806 105 793L111 950H805L795 793Q712 702 532 475Q308 192 308 153V145Q610 145 834 161Z" />
<glyph unicode="{" glyph-name="null" horiz-adv-x="723" d="M692 -362L630 -490Q198 -400 198 -171Q198 -97 238 73T279 289Q279 413 45 438V587Q287 622 287 742Q287 788 243 951T198 1182Q198 1466 643 1521L682 1397Q362 1359 362 1122Q362 1070 406 926T450
746Q450 638 370 581T221 523V514Q288 514 369 458T450 289Q450 249 406 99T362 -97Q362 -284 692 -362Z" />
<glyph unicode="|" glyph-name="null" horiz-adv-x="516" d="M345 -517H171Q184 -166 184 471Q184 1097 171 1550H345Q333 1125 333 471Q333 -183 345 -517Z" />
<glyph unicode="}" glyph-name="null" horiz-adv-x="723" d="M692 444Q450 409 450 289Q450 243 494 80T539 -151Q539 -435 94 -490L55 -366Q375 -328 375 -91Q375 -39 331 105T287 285Q287 393 367 450T516 508V517Q449 517 368 573T287 742Q287 782 331 932T375
1128Q375 1315 45 1393L107 1521Q539 1431 539 1202Q539 1128 499 958T458 742Q458 618 692 593V444Z" />
<glyph unicode="~" glyph-name="null" horiz-adv-x="1033" d="M1029 624Q880 386 692 386Q624 386 511 422T333 459Q215 459 103 312L6 364Q153 626 341 626Q409 626 536 591T727 556Q845 556 932 674L1029 624Z" />
</font>
</defs>
</svg>
