<?xml version="1.0" standalone="no"?> <!DOCTYPE svg PUBLIC "-//W3C//DTD SVG 1.0//EN" "http://www.w3.org/TR/2001/REC-SVG-20010904/DTD/svg10.dtd" > <svg xmlns="http://www.w3.org/2000/svg" width="100%" height="100%">
<defs >
<font id="slider" horiz-adv-x="481" ><font-face
    font-family="Slider"
    units-per-em="1000"
    panose-1="0 0 0 0 0 0 0 0 0 0"
    ascent="919"
    descent="-227"
    alphabetic="0" />
<missing-glyph horiz-adv-x="800" d="M50 0V800H750V0H50ZM700 50V750H100V50H700Z" />
<glyph unicode=" " glyph-name="space" horiz-adv-x="300" />
<glyph unicode="!" glyph-name="exclam" horiz-adv-x="302" d="M220 182H79V700H220V182ZM222 2H79V124H222V2Z" />
<glyph unicode="&quot;" glyph-name="quotedbl" horiz-adv-x="319" d="M281 422H195V683H281V422ZM126 422H40V683H126V422Z" />
<glyph unicode="#" glyph-name="numbersign" horiz-adv-x="743" d="M718 500L684 406H553L514 290H648L617 194H480L409 -2H310L378 194H261L188 -2H92L157 193H22L60 289H191L231 405H93L127 499H265L336 696H434L369 500H486L554 696H655L587 500H718ZM453 406H333L290
287H412L453 406Z" />
<glyph unicode="$" glyph-name="dollar" horiz-adv-x="726" d="M682 210Q682 100 628 51T446 1H383V-66H331V1H70V123H331V283L277 284Q149 284 96 333T42 490Q42 600 103 650T284 701H331V763H383V701H644V577H383V407H482Q563 407 611 375Q682 327 682 210ZM331
407V577Q256 577 227 564Q184 545 184 488Q184 439 225 419Q253 405 298 405Q310 405 318 405T331 407ZM540 210Q540 243 513 262Q480 285 416 285Q404 285 396 285T383 283V123Q389 122 396 122T415 121Q465 121 494 135Q540 157 540 210Z" />
<glyph unicode="%" glyph-name="percent" horiz-adv-x="890" d="M862 188Q862 76 807 29Q765 -7 684 -7Q603 -7 561 29Q506 76 506 188Q506 296 557 343Q601 383 684 383Q785 383 827 326Q862 279 862 188ZM610 698L341 2H270L540 698H610ZM384 513Q384 400 330
354Q288 318 207 318Q126 318 84 354Q28 402 28 513Q28 621 79 668Q123 708 207 708Q307 708 349 651Q384 603 384 513ZM787 186Q787 258 756 292Q730 320 687 320Q640 320 616 293Q586 260 586 186Q586 52 687 52Q787 52 787 186ZM307 513Q307 585 276 619Q250
647 207 647Q160 647 136 620Q106 587 106 513Q106 379 207 379Q307 379 307 513Z" />
<glyph unicode="&amp;" glyph-name="ampersand" horiz-adv-x="777" d="M746 289H661Q642 206 611 150Q570 75 504 35Q428 -12 314 -12Q206 -12 143 24Q56 74 56 187Q56 239 76 273T148 344Q102 380 88 399Q55 445 55 518Q55 600 111 650T262 700H494V574H300Q255
574 225 553T194 493Q194 451 221 429T308 406H330V290H308Q268 290 244 278Q202 257 202 205Q202 166 233 138T315 109Q413 109 463 173Q493 212 511 290H415V406H746V289Z" />
<glyph unicode="&apos;" glyph-name="quotesingle" horiz-adv-x="190" d="M151 628Q152 620 152 611Q152 584 143 559Q129 521 95 490V582H40V700H151V628Z" />
<glyph unicode="(" glyph-name="parenleft" horiz-adv-x="336" d="M294 -122H208Q131 -10 97 81Q59 182 59 289Q59 489 208 700H294Q260 632 243 591Q213 519 198 454Q179 373 179 288V258Q179 186 195 121Q221 16 294 -122Z" />
<glyph unicode=")" glyph-name="parenright" horiz-adv-x="336" d="M279 289Q279 89 130 -122H44Q78 -54 95 -13Q125 59 140 124Q159 205 159 290V320Q159 392 143 457Q117 562 44 700H130Q207 588 241 497Q279 396 279 289Z" />
<glyph unicode="*" glyph-name="asterisk" horiz-adv-x="483" d="M408 472L371 404L282 457L281 351H201L200 457L112 404L74 472L167 524L74 579L112 643L200 594V700H281L282 594L371 643L408 579L317 524L408 472Z" />
<glyph unicode="+" glyph-name="plus" horiz-adv-x="803" d="M682 245H450V2H355V245H122V339H355V580H450V339H682V245Z" />
<glyph unicode="," glyph-name="comma" horiz-adv-x="190" d="M151 50Q152 42 152 33Q152 6 143 -19Q129 -57 95 -88V4H40V122H151V50Z" />
<glyph unicode="-" glyph-name="hyphen" horiz-adv-x="374" d="M347 204H26V322H347V204Z" />
<glyph unicode="." glyph-name="period" horiz-adv-x="190" d="M151 2H40V120H151V2Z" />
<glyph unicode="/" glyph-name="slash" horiz-adv-x="405" d="M406 708L64 -88H-1L338 708H406Z" />
<glyph unicode="0" glyph-name="zero" horiz-adv-x="748" d="M719 350Q719 143 612 57Q530 -9 374 -9Q218 -9 135 58Q28 145 28 350Q28 548 128 635Q212 708 374 708Q467 708 532 685Q619 654 664 583Q719 497 719 350ZM568 350Q568 360 568 366Q568 477 518 536T374
596Q282 596 235 546Q178 486 178 349Q178 228 226 166T374 103Q466 103 514 156Q568 216 568 350Z" />
<glyph unicode="1" glyph-name="one" horiz-adv-x="324" d="M247 2H99V700H247V2Z" />
<glyph unicode="2" glyph-name="two" horiz-adv-x="748" d="M679 504Q679 403 632 351Q581 294 472 294H341Q282 294 254 270T225 163V120H676V2H72V212Q72 319 124 365Q181 416 320 416H438Q473 416 496 437T519 494Q519 539 496 559Q469 582 403 582H72V700H468Q568
700 621 655Q679 606 679 504Z" />
<glyph unicode="3" glyph-name="three" horiz-adv-x="748" d="M660 188Q660 90 596 43Q541 2 446 2H101V118H384Q440 118 469 138T499 206Q499 251 468 272T384 294H156V410H380Q436 410 463 428Q495 449 495 496Q495 584 380 584H101V700H431Q565 700 616 647Q659
602 659 513Q659 467 636 427T566 351Q602 332 626 300Q660 254 660 188Z" />
<glyph unicode="4" glyph-name="four" horiz-adv-x="767" d="M714 129H622V2H476V129H31V264L437 700H621L622 247H714V129ZM475 248V552L195 248H475Z" />
<glyph unicode="5" glyph-name="five" horiz-adv-x="748" d="M682 208Q682 2 441 2H73V118H409Q461 118 485 135Q515 156 515 208Q515 256 488 277T409 298H73V700H647V583H225V415H468Q561 415 621 361T682 208Z" />
<glyph unicode="6" glyph-name="six" horiz-adv-x="748" d="M703 215Q703 104 634 50Q560 -8 401 -8Q301 -8 240 13Q153 43 106 118Q50 208 50 365Q50 515 120 596Q210 700 418 700H665V584H414Q311 584 273 554Q226 517 215 403H464Q579 403 638 360Q703 313
703 215ZM546 204Q546 238 525 261Q501 287 456 287H215Q215 210 243 170Q288 106 403 106Q479 106 512 130T546 204Z" />
<glyph unicode="7" glyph-name="seven" horiz-adv-x="748" d="M678 583L263 2H81L510 583H67V700H678V583Z" />
<glyph unicode="8" glyph-name="eight" horiz-adv-x="748" d="M704 187Q704 108 661 61Q607 2 489 2H260Q149 2 95 53Q45 100 45 184Q45 256 73 295Q98 329 148 351Q100 390 79 425Q55 465 55 515Q55 588 83 627Q135 700 281 700H469Q588 700 641 658T694 523Q694
461 674 425T603 351Q656 326 680 289T704 187ZM543 496Q543 542 514 563T430 584H323Q208 584 208 496Q208 451 238 431T323 410H430Q483 410 510 427Q543 448 543 496ZM543 206Q543 294 430 294H322Q269 294 242 277Q207 255 207 206Q207 118 322 118H430Q543
118 543 206Z" />
<glyph unicode="9" glyph-name="nine" horiz-adv-x="748" d="M701 370Q701 167 605 80Q519 2 333 2H88V118H336Q446 118 495 174Q534 219 534 298H288Q169 298 113 341Q50 390 50 506Q50 615 144 667Q221 709 349 709Q438 709 497 692Q588 666 638 599Q701 515
701 370ZM534 414Q534 495 502 536Q457 593 344 593Q282 593 245 569T207 498Q207 461 229 438T296 414H534Z" />
<glyph unicode=":" glyph-name="colon" horiz-adv-x="206" d="M156 264H47V382H156V264ZM156 2H47V120H156V2Z" />
<glyph unicode=";" glyph-name="semicolon" horiz-adv-x="206" d="M156 264H47V382H156V264ZM156 46Q156 -2 146 -29T100 -88V2H47V120H156V46Z" />
<glyph unicode="&lt;" glyph-name="less" horiz-adv-x="630" d="M557 17L67 246V338L557 565V468L194 293L557 114V17Z" />
<glyph unicode="=" glyph-name="equal" horiz-adv-x="702" d="M622 349H61V438H622V349ZM622 144H61V234H622V144Z" />
<glyph unicode="&gt;" glyph-name="greater" horiz-adv-x="630" d="M557 246L67 17V114L432 293L67 468V565L557 338V246Z" />
<glyph unicode="?" glyph-name="question" horiz-adv-x="669" d="M638 489Q638 402 587 349Q532 292 432 292H309Q248 292 221 271T194 190V176H40V212Q40 310 91 359Q149 414 278 414H382Q479 414 479 504Q479 548 452 565T364 582H26V700H413Q509 700 552 677Q638
631 638 489ZM194 2H42V122H194V2Z" />
<glyph unicode="@" glyph-name="at" horiz-adv-x="772" d="M737 293Q737 199 685 126Q624 41 521 41Q488 41 468 52Q440 68 440 105Q400 43 332 43Q208 43 208 170Q208 238 241 297Q289 383 388 383Q446 383 477 335L499 373H562L505 130Q504 118 512 110T536
101Q578 101 618 145Q670 202 670 291Q670 393 596 451Q527 505 420 505Q267 505 175 395Q100 305 100 198Q100 61 203 -7Q281 -59 386 -59Q453 -59 508 -42T618 14L647 -29Q571 -82 499 -102Q448 -116 386 -116Q244 -116 144 -35Q35 53 35 198Q35 353 144 458T419
563Q528 563 617 508Q737 434 737 293ZM460 267Q465 287 444 310T396 333Q341 333 310 273Q286 226 286 170Q286 95 346 95Q381 95 406 121T440 184L460 267Z" />
<glyph unicode="A" glyph-name="A" horiz-adv-x="698" d="M717 2H560L495 170H191L130 2H-19L271 700H422L717 2ZM448 292L342 568L238 292H448Z" />
<glyph unicode="B" glyph-name="B" horiz-adv-x="730" d="M684 196Q684 104 646 61Q594 2 453 2H73V700H428Q549 700 604 669Q682 625 682 509Q682 454 658 419T577 351Q634 324 659 289T684 196ZM528 494Q528 577 430 577H216V413H427Q475 413 499 429Q528 449
528 494ZM530 206Q530 291 432 291H216V123H429Q476 123 501 140Q530 160 530 206Z" />
<glyph unicode="C" glyph-name="C" horiz-adv-x="631" d="M594 2H350Q200 2 118 80Q28 165 28 338Q28 506 96 595Q176 700 354 700H594V584H356Q256 584 215 512Q184 457 184 351V316Q184 232 208 190Q248 120 356 120H594V2Z" />
<glyph unicode="D" glyph-name="D" horiz-adv-x="744" d="M712 380Q712 151 624 67Q556 2 392 2H73V700H388Q576 700 654 597Q712 520 712 380ZM558 351Q558 501 505 550Q470 582 386 582L216 581V121L384 122Q485 122 521 168T558 351Z" />
<glyph unicode="E" glyph-name="E" horiz-adv-x="653" d="M594 2H350Q200 2 118 80Q28 165 28 338Q28 540 115 625Q191 700 354 700H594V582H356Q277 582 236 541T194 414H594V295H191Q191 198 237 156Q276 120 356 120H594V2Z" />
<glyph unicode="F" glyph-name="F" horiz-adv-x="655" d="M627 290H212V2H68V322Q68 455 79 507Q99 601 165 646Q245 700 407 700H627V582H394Q298 582 253 533Q212 489 212 407H627V290Z" />
<glyph unicode="G" glyph-name="G" horiz-adv-x="716" d="M665 2H344Q276 2 236 12Q149 34 97 98Q28 184 28 338Q28 500 89 587Q168 700 354 700H665V582H354Q267 582 228 524T188 356Q188 246 222 191Q262 126 354 126H519V293H326V414H665V2Z" />
<glyph unicode="H" glyph-name="H" horiz-adv-x="702" d="M627 2H486V295H216V2H73V700H216V417H486V700H627V2Z" />
<glyph unicode="I" glyph-name="I" horiz-adv-x="298" d="M222 2H73V700H222V2Z" />
<glyph unicode="J" glyph-name="J" horiz-adv-x="540" d="M475 284Q475 119 406 58Q343 2 186 2H-2V114H168Q262 114 295 158T328 316V700H475V284Z" />
<glyph unicode="K" glyph-name="K" horiz-adv-x="649" d="M664 2H481L216 350V2H73V700H216V364L490 700H662L385 358L664 2Z" />
<glyph unicode="L" glyph-name="L" horiz-adv-x="538" d="M530 2H323Q176 2 114 73Q57 138 57 284V700H198V316V278Q198 202 221 167Q256 114 358 114H530V2Z" />
<glyph unicode="M" glyph-name="M" horiz-adv-x="924" d="M850 2H722V546L542 2H390L204 551V2H73V700H285L462 157L641 700H850V2Z" />
<glyph unicode="N" glyph-name="N" horiz-adv-x="750" d="M679 2H514L214 532V2H73V700H256L542 196V700H679V2Z" />
<glyph unicode="O" glyph-name="O" horiz-adv-x="746" d="M719 351Q719 153 613 62Q526 -13 374 -13Q295 -13 237 5Q146 33 94 105Q28 196 28 353Q28 503 82 589Q127 660 214 691Q279 714 372 714Q520 714 602 657Q671 609 699 518Q719 452 719 351ZM564 350Q564
487 509 547Q463 597 373 597Q284 597 233 536T182 353Q182 238 210 185Q253 103 373 103Q478 103 524 171Q564 230 564 350Z" />
<glyph unicode="P" glyph-name="P" horiz-adv-x="716" d="M686 473Q686 335 582 280Q518 246 422 246Q413 246 406 246T394 247H216V2H73V700H388Q551 700 618 646T686 473ZM528 473Q528 532 494 554T385 577H216V369H393Q528 369 528 473Z" />
<glyph unicode="Q" glyph-name="Q" horiz-adv-x="746" d="M760 2H588L566 26Q529 13 504 7Q426 -12 349 -12Q215 -12 137 50Q73 101 47 193Q28 261 28 354Q28 507 94 597Q180 713 370 713Q464 713 530 689Q615 658 662 584Q718 496 718 351Q718 281 706 227Q691
162 657 104L760 2ZM563 349Q563 485 507 546Q460 598 373 598Q286 598 239 545Q183 483 183 349Q183 236 233 169T373 102Q482 102 527 175Q563 233 563 349Z" />
<glyph unicode="R" glyph-name="R" horiz-adv-x="724" d="M701 2H543L389 276H215V2H73V700H430Q550 700 607 655Q671 605 671 490Q671 412 640 365Q605 312 533 295L701 2ZM528 488Q528 539 496 558T394 577H216V397H395Q465 397 489 408Q528 426 528 488Z" />
<glyph unicode="S" glyph-name="S" horiz-adv-x="730" d="M690 210Q690 119 651 71Q595 2 449 2H63V124H426Q483 124 509 139Q541 158 541 203Q541 249 516 268T435 288H264Q150 288 94 334Q34 383 34 490Q34 599 92 649T275 700H656V578H298Q182 578 182 484Q182
445 208 426T277 406H469Q571 406 617 379Q690 336 690 210Z" />
<glyph unicode="T" glyph-name="T" horiz-adv-x="598" d="M596 579H373V2H223V579H2V698H596V579Z" />
<glyph unicode="U" glyph-name="U" horiz-adv-x="741" d="M669 276V241Q669 138 626 83Q556 -6 372 -6Q167 -6 103 95Q72 144 72 255V700H213V280Q212 260 212 247Q212 186 236 153Q273 102 372 102Q460 102 494 141T528 280V700H669V276Z" />
<glyph unicode="V" glyph-name="V" horiz-adv-x="677" d="M708 700L421 2H273L-27 700H132L343 175L558 700H708Z" />
<glyph unicode="W" glyph-name="W" horiz-adv-x="1067" d="M1068 700L856 2H680L534 522H530L400 2H226L-3 700H148L307 162H311L446 700H616L774 155L923 700H1068Z" />
<glyph unicode="X" glyph-name="X" horiz-adv-x="624" d="M630 2H460L313 245L158 2H-11L229 351L-3 700H164L307 478L449 700H614L393 360L630 2Z" />
<glyph unicode="Y" glyph-name="Y" horiz-adv-x="598" d="M634 700L370 310V2H226L225 310L-35 700H125L296 432L469 700H634Z" />
<glyph unicode="Z" glyph-name="Z" horiz-adv-x="709" d="M637 2H57V127L451 577H57V700H637V577L248 122H637V2Z" />
<glyph unicode="[" glyph-name="bracketleft" horiz-adv-x="336" d="M309 -122H75V700H309V592H189V-17H309V-122Z" />
<glyph unicode="\" glyph-name="backslash" horiz-adv-x="405" d="M406 -88H340L-1 708H66L406 -88Z" />
<glyph unicode="]" glyph-name="bracketright" horiz-adv-x="336" d="M259 -122H26V-17H146V592H26V700H259V-122Z" />
<glyph unicode="^" glyph-name="asciicircum" horiz-adv-x="765" d="M650 431H543L367 605L190 431H84L307 694H426L650 431Z" />
<glyph unicode="_" glyph-name="underscore" horiz-adv-x="483" d="M486 -170H2V-100H486V-170Z" />
<glyph unicode="`" glyph-name="grave" horiz-adv-x="333" d="M288 578H225L64 710H198L288 578Z" />
<glyph unicode="a" glyph-name="a" horiz-adv-x="613" d="M550 2H192Q118 2 77 42T36 152Q36 237 84 273T237 310H415Q415 368 390 389T293 410H70V513H343Q425 513 468 490Q550 446 550 322V2ZM416 101V212H257Q216 212 199 204Q174 192 174 156Q174 127 193
114T247 101H416Z" />
<glyph unicode="b" glyph-name="b" horiz-adv-x="590" d="M564 263Q564 168 518 99Q453 2 317 2H61V700H192V513H309Q432 513 498 449T564 263ZM426 256Q426 327 398 361Q363 404 275 404H192V106H274Q358 106 395 150Q426 187 426 256Z" />
<glyph unicode="c" glyph-name="c" horiz-adv-x="509" d="M475 2H296Q182 2 113 57Q30 123 30 256Q30 411 125 472Q188 513 296 513H475V404H305Q226 404 195 363Q168 327 168 256Q168 170 212 135Q246 108 319 108H475V2Z" />
<glyph unicode="d" glyph-name="d" horiz-adv-x="588" d="M528 2H271Q176 2 110 53Q24 120 24 255Q24 384 96 452Q162 514 273 514H395L396 700H528V2ZM395 107V403H323Q231 403 197 369T162 242Q162 175 188 146Q223 107 317 107H395Z" />
<glyph unicode="e" glyph-name="e" horiz-adv-x="509" d="M479 2H285Q160 2 95 71T30 258Q30 410 123 472Q184 513 285 513H479V410H303Q234 410 206 389T178 309H479V204H176Q176 148 201 126T302 104H479V2Z" />
<glyph unicode="f" glyph-name="f" horiz-adv-x="379" d="M370 413H241V2H105V414H10V513H105V544Q105 553 105 561T104 576Q104 632 124 658Q156 700 243 700H370V606H316Q274 606 257 591T240 546V513H370V413Z" />
<glyph unicode="g" glyph-name="g" horiz-adv-x="588" d="M534 20Q534 -81 489 -132T343 -183H81V-82H319Q401 -82 401 1H277Q181 1 119 44Q26 108 26 256Q26 384 94 448T291 513H534V20ZM401 104V407H329Q234 407 196 365Q163 329 163 252Q163 179 192 145Q227
104 314 104H401Z" />
<glyph unicode="h" glyph-name="h" horiz-adv-x="581" d="M522 2H390V311Q390 360 371 380T297 401H189V2H61V700H189V514H306Q402 514 452 482Q522 437 522 326V2Z" />
<glyph unicode="i" glyph-name="i" horiz-adv-x="257" d="M196 576H61V700H196V576ZM196 2H61V513H196V2Z" />
<glyph unicode="j" glyph-name="j" horiz-adv-x="257" d="M196 576H61V700H196V576ZM196 24Q196 -81 150 -132T2 -184L-64 -183V-78H-8Q32 -78 48 -50Q61 -27 61 30V513H196V24Z" />
<glyph unicode="k" glyph-name="k" horiz-adv-x="581" d="M579 2H402L195 251V2H64V700H195V267L413 513H579L346 264L579 2Z" />
<glyph unicode="l" glyph-name="l" horiz-adv-x="253" d="M194 2H59V700H194V2Z" />
<glyph unicode="m" glyph-name="m" horiz-adv-x="847" d="M783 2H653V309Q653 363 635 382T564 402H488V2H351V401H191V2H61V513H573Q674 513 723 478Q783 435 783 326V2Z" />
<glyph unicode="n" glyph-name="n" horiz-adv-x="579" d="M522 2H390V309V324Q390 360 378 375Q357 401 299 401H191V2H61V513H311Q421 513 467 478Q522 436 522 326V2Z" />
<glyph unicode="o" glyph-name="o" horiz-adv-x="588" d="M562 258Q562 136 490 64T294 -9Q172 -9 99 62T26 258Q26 408 123 475Q192 523 294 523Q392 523 463 473Q562 403 562 258ZM426 256Q426 324 393 367Q357 414 295 414Q246 414 208 377Q162 333 162 256Q162
195 196 150Q234 99 293 99Q354 99 392 148Q426 192 426 256Z" />
<glyph unicode="p" glyph-name="p" horiz-adv-x="590" d="M564 252Q564 130 500 66T309 2H190V-183H61V513H317Q427 513 493 449Q564 380 564 252ZM426 261Q426 333 402 364Q369 406 277 406H191V108H242Q353 108 393 149Q426 183 426 261Z" />
<glyph unicode="q" glyph-name="q" horiz-adv-x="588" d="M528 -183H397V2H281Q172 2 104 58Q25 123 25 250Q25 355 82 428Q148 513 271 513H528V-183ZM397 108V406H313Q227 406 192 367Q162 333 162 260Q162 191 191 154Q227 108 313 108H397Z" />
<glyph unicode="r" glyph-name="r" horiz-adv-x="455" d="M424 302H300V341Q300 389 291 403T253 417Q249 418 241 418T227 418Q215 418 207 418T191 417V2H61V513H285Q363 513 391 486Q424 454 424 365V302Z" />
<glyph unicode="s" glyph-name="s" horiz-adv-x="573" d="M534 170Q534 93 498 48T396 2H53V104H334Q407 104 407 158Q407 210 334 210H217Q200 209 189 209Q130 209 97 230Q44 264 44 351Q44 513 221 513H507V410H249Q178 410 178 366V357Q182 312 243 312H366Q441
312 481 286Q534 251 534 170Z" />
<glyph unicode="t" glyph-name="t" horiz-adv-x="400" d="M377 2H257Q184 2 144 43T103 160V414H10V513H103V700H234V513H377V414H234V204Q234 161 247 133T292 105H377V2Z" />
<glyph unicode="u" glyph-name="u" horiz-adv-x="581" d="M516 2H265Q158 2 111 40Q57 83 57 188V513H186V198Q186 155 203 135Q224 110 275 110H386V513H516V2Z" />
<glyph unicode="v" glyph-name="v" horiz-adv-x="588" d="M583 513L358 2H219L5 513H149L293 142L443 513H583Z" />
<glyph unicode="w" glyph-name="w" horiz-adv-x="843" d="M853 513L681 2H532L419 359L309 2H166L-11 513H124L237 147L351 513H490L606 147L718 513H853Z" />
<glyph unicode="x" glyph-name="x" horiz-adv-x="534" d="M531 513L344 254L527 2H374L265 149L158 2H7L191 258L5 513H156L265 357L379 513H531Z" />
<glyph unicode="y" glyph-name="y" horiz-adv-x="581" d="M516 14Q516 -81 472 -130Q425 -183 328 -183H66V-82H303Q386 -82 386 2H265Q156 2 110 40Q57 84 57 196V513H184V208Q184 156 195 139Q214 110 275 110H386V513H516V14Z" />
<glyph unicode="z" glyph-name="z" horiz-adv-x="564" d="M518 2H45V110L345 403H45V513H518V402L218 110H518V2Z" />
<glyph unicode="{" glyph-name="braceleft" horiz-adv-x="483" d="M415 -194L367 -195Q264 -195 230 -158Q200 -125 200 -34V84Q200 153 177 178T84 204H75V302H84Q149 302 174 326T200 424V542Q200 628 230 662Q266 703 369 703H415V606H372Q341 606 326 581T311
509V395Q311 327 292 299T209 255Q266 233 275 227Q311 202 311 110V-4Q311 -47 324 -73T364 -99Q365 -100 376 -100H415V-194Z" />
<glyph unicode="|" glyph-name="bar" horiz-adv-x="483" d="M289 -227H194V744H289V-227Z" />
<glyph unicode="}" glyph-name="braceright" horiz-adv-x="483" d="M415 206H406Q341 206 316 182T290 84V-34Q290 -120 260 -154Q224 -195 121 -195H75V-98H118Q149 -98 164 -73T179 -1V113Q179 181 198 209T281 253Q224 275 215 281Q179 306 179 398V512Q179
555 166 581T126 607Q125 608 114 608H75V702L123 703Q226 703 260 666Q290 633 290 542V424Q290 355 313 330T406 304H415V206Z" />
<glyph unicode="~" glyph-name="asciitilde" horiz-adv-x="625" d="M575 654Q529 503 396 503Q356 503 280 517T188 531Q131 531 107 484H29Q54 565 90 597Q130 633 203 633Q250 633 315 618T413 603Q443 603 462 615T496 654H575Z" />
</font>
</defs>
</svg>
